<svg width="794" height="267" viewBox="0 0 794 267" fill="none" xmlns="http://www.w3.org/2000/svg">
<path d="M193.399 237.436C192.977 236.66 192.367 236.072 191.569 235.672C190.792 235.251 189.872 235.04 188.807 235.04C186.966 235.04 185.491 235.65 184.382 236.87C183.273 238.068 182.718 239.676 182.718 241.695C182.718 243.846 183.295 245.532 184.448 246.752C185.624 247.95 187.232 248.549 189.273 248.549C190.67 248.549 191.846 248.194 192.8 247.484C193.776 246.774 194.485 245.754 194.929 244.423H187.709V240.231H200.086V245.521C199.665 246.941 198.944 248.261 197.924 249.481C196.925 250.701 195.65 251.688 194.097 252.442C192.545 253.196 190.792 253.573 188.84 253.573C186.533 253.573 184.47 253.074 182.651 252.076C180.855 251.056 179.446 249.647 178.426 247.85C177.428 246.054 176.929 244.002 176.929 241.695C176.929 239.388 177.428 237.336 178.426 235.539C179.446 233.72 180.855 232.312 182.651 231.314C184.448 230.293 186.5 229.783 188.807 229.783C191.602 229.783 193.953 230.46 195.861 231.813C197.791 233.166 199.066 235.04 199.687 237.436H193.399ZM222.636 230.049V244.024C222.636 245.421 222.98 246.497 223.667 247.251C224.355 248.006 225.364 248.383 226.695 248.383C228.026 248.383 229.047 248.006 229.756 247.251C230.466 246.497 230.821 245.421 230.821 244.024V230.049H236.511V243.991C236.511 246.076 236.067 247.839 235.18 249.281C234.293 250.723 233.095 251.81 231.586 252.542C230.1 253.274 228.437 253.64 226.595 253.64C224.754 253.64 223.102 253.285 221.638 252.575C220.196 251.843 219.054 250.756 218.211 249.314C217.368 247.85 216.946 246.076 216.946 243.991V230.049H222.636ZM260.004 234.608V239.332H267.623V243.724H260.004V248.848H268.622V253.407H254.314V230.049H268.622V234.608H260.004ZM294.575 253.64C292.867 253.64 291.336 253.362 289.983 252.808C288.63 252.253 287.543 251.433 286.722 250.346C285.924 249.259 285.502 247.95 285.458 246.42H291.514C291.602 247.285 291.902 247.95 292.412 248.416C292.922 248.86 293.588 249.081 294.408 249.081C295.251 249.081 295.917 248.893 296.405 248.516C296.893 248.116 297.137 247.573 297.137 246.885C297.137 246.309 296.937 245.832 296.538 245.455C296.161 245.078 295.684 244.767 295.107 244.523C294.553 244.279 293.754 244.002 292.712 243.691C291.203 243.225 289.972 242.76 289.018 242.294C288.064 241.828 287.244 241.14 286.556 240.231C285.868 239.321 285.525 238.135 285.525 236.671C285.525 234.497 286.312 232.8 287.887 231.58C289.462 230.338 291.514 229.717 294.042 229.717C296.616 229.717 298.69 230.338 300.264 231.58C301.839 232.8 302.682 234.508 302.793 236.704H296.638C296.593 235.95 296.316 235.362 295.806 234.94C295.296 234.497 294.641 234.275 293.843 234.275C293.155 234.275 292.601 234.464 292.179 234.841C291.758 235.196 291.547 235.717 291.547 236.404C291.547 237.159 291.902 237.746 292.612 238.168C293.322 238.589 294.431 239.044 295.939 239.532C297.447 240.042 298.667 240.53 299.599 240.996C300.553 241.462 301.374 242.138 302.061 243.026C302.749 243.913 303.093 245.055 303.093 246.453C303.093 247.784 302.749 248.993 302.061 250.08C301.396 251.166 300.42 252.032 299.133 252.675C297.847 253.318 296.327 253.64 294.575 253.64ZM337.205 230.049V234.608H331.016V253.407H325.327V234.608H319.138V230.049H337.205ZM368.01 241.429C369.363 241.717 370.45 242.394 371.27 243.458C372.091 244.501 372.501 245.699 372.501 247.052C372.501 249.004 371.814 250.556 370.439 251.71C369.085 252.841 367.189 253.407 364.749 253.407H353.869V230.049H364.383C366.756 230.049 368.609 230.593 369.939 231.68C371.293 232.767 371.969 234.242 371.969 236.105C371.969 237.48 371.603 238.623 370.871 239.532C370.161 240.442 369.207 241.074 368.01 241.429ZM359.558 239.499H363.285C364.217 239.499 364.926 239.299 365.414 238.9C365.925 238.478 366.18 237.868 366.18 237.07C366.18 236.271 365.925 235.661 365.414 235.24C364.926 234.818 364.217 234.608 363.285 234.608H359.558V239.499ZM363.751 248.815C364.705 248.815 365.437 248.604 365.947 248.183C366.479 247.739 366.745 247.107 366.745 246.286C366.745 245.466 366.468 244.822 365.913 244.357C365.381 243.891 364.638 243.658 363.684 243.658H359.558V248.815H363.751ZM400.656 253.64C398.46 253.64 396.442 253.13 394.601 252.109C392.782 251.089 391.329 249.669 390.242 247.85C389.177 246.009 388.645 243.946 388.645 241.662C388.645 239.377 389.177 237.325 390.242 235.506C391.329 233.687 392.782 232.268 394.601 231.247C396.442 230.227 398.46 229.717 400.656 229.717C402.852 229.717 404.86 230.227 406.679 231.247C408.52 232.268 409.961 233.687 411.004 235.506C412.069 237.325 412.601 239.377 412.601 241.662C412.601 243.946 412.069 246.009 411.004 247.85C409.939 249.669 408.497 251.089 406.679 252.109C404.86 253.13 402.852 253.64 400.656 253.64ZM400.656 248.449C402.519 248.449 404.006 247.828 405.115 246.586C406.246 245.344 406.812 243.702 406.812 241.662C406.812 239.599 406.246 237.957 405.115 236.737C404.006 235.495 402.519 234.874 400.656 234.874C398.771 234.874 397.262 235.484 396.131 236.704C395.022 237.924 394.467 239.576 394.467 241.662C394.467 243.724 395.022 245.377 396.131 246.619C397.262 247.839 398.771 248.449 400.656 248.449ZM440.621 253.64C438.425 253.64 436.407 253.13 434.566 252.109C432.747 251.089 431.294 249.669 430.207 247.85C429.142 246.009 428.61 243.946 428.61 241.662C428.61 239.377 429.142 237.325 430.207 235.506C431.294 233.687 432.747 232.268 434.566 231.247C436.407 230.227 438.425 229.717 440.621 229.717C442.817 229.717 444.825 230.227 446.644 231.247C448.485 232.268 449.926 233.687 450.969 235.506C452.034 237.325 452.566 239.377 452.566 241.662C452.566 243.946 452.034 246.009 450.969 247.85C449.904 249.669 448.462 251.089 446.644 252.109C444.825 253.13 442.817 253.64 440.621 253.64ZM440.621 248.449C442.484 248.449 443.971 247.828 445.08 246.586C446.211 245.344 446.777 243.702 446.777 241.662C446.777 239.599 446.211 237.957 445.08 236.737C443.971 235.495 442.484 234.874 440.621 234.874C438.736 234.874 437.227 235.484 436.096 236.704C434.987 237.924 434.432 239.576 434.432 241.662C434.432 243.724 434.987 245.377 436.096 246.619C437.227 247.839 438.736 248.449 440.621 248.449ZM483.082 253.407L475.229 243.092V253.407H469.54V230.049H475.229V240.297L483.015 230.049H489.703L480.653 241.495L490.036 253.407H483.082Z" fill="white"/>
<path fill-rule="evenodd" clip-rule="evenodd" d="M631.242 0.732732C628.681 1.67384 624.909 6.70784 618.861 17.2549C612.951 27.5613 601.757 50.4166 596.188 63.5432L592.075 73.2408L579.263 74.1959C564.729 75.2791 557.837 76.2994 556.27 77.6C555.677 78.0923 555.192 79.6632 555.192 81.0904C555.192 85.0551 556.936 85.5995 569.945 85.6942C584.598 85.8013 586.252 85.9178 586.252 86.8465C586.252 87.2736 583.292 96.0208 579.674 106.284C576.057 116.548 571.681 129.543 569.95 135.162C568.219 140.781 566.7 145.482 566.574 145.608C566.447 145.734 560.253 146.741 552.809 147.845C537.255 150.154 527.823 150.173 523.203 147.907C521.571 147.106 518.934 144.6 517.095 142.102C512.535 135.911 510.335 134.221 506.83 134.216C499.038 134.206 492.311 139.655 476.255 158.984L474.58 161.002L476.433 152.848C478.986 141.617 478.918 138.574 476.05 135.706C471.613 131.269 466.176 133.683 463.186 141.418C461.946 144.625 461.479 144.937 441.195 156.074C418.119 168.743 410.6 172.577 402.611 175.751C396.519 178.171 381.05 181.558 376.032 181.57C371.608 181.582 366.828 179.556 364.905 176.854C363.284 174.578 363.46 172.404 365.752 166.375L366.44 164.564L371.503 166.859C377.598 169.623 381.151 169.735 386.305 167.324C398.022 161.843 405.446 143.777 399.629 134.9C398.907 133.796 396.485 131.882 394.251 130.645C390.854 128.768 389.295 128.4 384.752 128.402C380.05 128.404 378.659 128.76 374.445 131.038C368.579 134.209 362.632 139.817 357.926 146.613L354.446 151.636L337.66 159.609C324.799 165.718 318.809 168.106 312.047 169.826C301.633 172.473 295.878 173.282 294.346 172.312C293.544 171.804 293.075 169.034 292.656 162.332C292.017 152.104 291.208 148.296 288.864 144.482C286.79 141.107 284.138 140.203 277.596 140.644C270.198 141.142 262.718 143.803 254.877 148.725C251.265 150.993 248.173 152.848 248.005 152.848C247.838 152.848 247.699 149.616 247.696 145.666C247.692 137.274 246.733 133.174 244.178 130.619C240.518 126.959 231.449 128.69 222.159 134.821C215.876 138.968 198.809 155.863 192.395 164.285C189.371 168.255 186.771 171.379 186.617 171.226C186.138 170.747 190.053 158.017 193.323 149.415C195.045 144.889 196.453 140.115 196.453 138.805C196.453 135.904 192.763 131.881 190.106 131.886C187.067 131.891 183.438 134.72 181.004 138.979C177.626 144.894 173.305 158.594 171.921 167.769C170.372 178.044 170.942 183.364 173.907 186.33C180.089 192.512 185.916 189.354 199.875 172.261C210.465 159.292 223.445 146.327 229.328 142.84C231.769 141.393 233.894 140.344 234.05 140.511C234.206 140.677 234.042 142.56 233.687 144.695C232.664 150.834 232.83 165.382 233.948 167.602C234.716 169.127 235.616 169.593 238.15 169.779C242.185 170.074 247.008 167.726 256.627 160.782C263.918 155.519 271.165 151.686 275.444 150.832C277.603 150.401 278.049 150.59 278.657 152.188C279.045 153.208 279.182 157.201 278.963 161.06C278.459 169.892 279.96 175.664 283.89 180.015C287.474 183.981 290.739 185 298.106 184.448C306.992 183.784 327.608 176.623 343.105 168.819L348.451 166.127L348.391 172.105C348.318 179.446 350.056 183.77 354.795 188.039C363.099 195.52 373.844 196.536 392.009 191.56C403.471 188.419 424.938 178.237 448.001 165.001C452.893 162.193 456.999 159.999 457.125 160.126C457.251 160.252 456.832 163.82 456.194 168.055C454.851 176.965 454.666 188 455.824 190.163C456.754 191.9 460.493 194.002 462.652 194.002C464.673 194.002 468.868 189.275 477.123 177.696C485.073 166.545 495.261 153.949 500.191 149.176L503.582 145.891L508.23 151.482C513.632 157.979 516.905 159.588 526.757 160.592C535.649 161.498 552.999 159.768 562.294 157.051C563.386 156.732 563.177 158.246 560.87 167.38C550.151 209.819 548.339 235.701 555.366 245.997C561.773 255.386 575.925 252.588 595.045 238.153C602.174 232.771 622.364 213.086 636.818 197.424L641.902 191.916L643.669 193.348C644.822 194.281 646.697 194.779 649.061 194.779C654.14 194.779 661.53 191.053 677.489 180.446C693.809 169.6 697.913 167.166 701.909 165.969C704.702 165.132 705.233 165.192 706.692 166.509C707.594 167.324 709.483 170.261 710.89 173.037C716.361 183.828 720.118 187.014 727.375 187.014C732.952 187.014 738.37 184.882 756.255 175.648C777.979 164.432 790.97 156.999 792.39 154.971C793.983 152.696 793.969 146.954 792.368 146.339C790.767 145.725 785.607 147.949 760.186 160.205C736.376 171.684 729.025 174.801 727.313 174.144C725.951 173.621 723.435 169.972 719.589 162.943C714.534 153.702 710.837 151.588 701.941 152.849C699.08 153.255 696.128 153.821 695.383 154.108C693.583 154.798 692.661 153.206 692.63 149.354C692.572 142.008 685.739 135.95 678.654 136.964C672.729 137.813 667.114 141.063 660.344 147.563C653.205 154.416 648.369 161.173 643.72 170.788C641.511 175.356 639.099 178.819 635.664 182.355C632.968 185.131 625.214 193.478 618.434 200.905C605.595 214.969 594.375 224.871 582.188 232.893C567.469 242.583 563.522 241.135 565.169 226.655C566.713 213.074 572.494 187.338 580.16 159.913C585.504 140.795 603.473 89.0766 606.282 84.7298C606.708 84.0705 612.006 83.5394 623.557 82.9982C632.721 82.5688 642.489 82.0183 645.265 81.7745C650.596 81.3062 653.806 79.8332 653.806 77.8555C653.806 76.0463 649.127 72.1599 646.314 71.6319C644.942 71.3749 636.387 71.5356 627.302 71.9899C618.218 72.4433 610.701 72.7306 610.598 72.6266C610.173 72.2019 617.526 56.415 627.932 35.4054C634.014 23.1283 639.548 11.439 640.231 9.42867C641.856 4.64238 641.23 2.39055 637.886 0.992862C634.871 -0.266608 634.048 -0.299226 631.242 0.732732ZM130.451 80.7363C96.6981 98.3999 65.2098 115.332 46.2013 126.04C24.6622 138.174 0 152.922 0 153.67C0 155.773 68.1209 125.208 121.909 98.9675C137.924 91.1552 151.143 84.8517 151.283 84.9596C151.423 85.0683 150.293 90.5162 148.772 97.0667C147.251 103.617 142.329 125.874 137.834 146.525C133.34 167.178 128.412 189.281 126.884 195.644L124.107 207.214L119.529 203.071C113.333 197.464 107.384 194.644 100.753 194.169C97.8683 193.963 95.5085 193.982 95.5085 194.213C95.5085 194.443 96.9932 195.503 98.8086 196.568C103.97 199.597 109.204 204.578 113.13 210.199C119.136 218.797 122.546 221.956 125.818 221.956C129.089 221.956 131.196 220.06 133.126 215.378C136.882 206.266 147.304 165.389 158.37 116.353C162.274 99.0568 165.975 82.933 166.595 80.5227C168.274 73.9956 168.066 70.8143 165.816 68.564C161.882 64.6287 159.975 65.2849 130.451 80.7363ZM72.7216 145.572C49.0456 162.887 36.3026 171.736 34.6735 171.994C32.8759 172.279 28.9771 171.11 20.0219 167.6C8.22926 162.979 5.0472 162.281 5.0472 164.315C5.0472 164.844 11.8322 173.679 20.1251 183.948L35.2023 202.621L38.3478 202.388C41.46 202.158 41.8529 201.741 76.2624 162.166C95.3851 140.172 110.942 121.657 110.832 121.021C110.722 120.386 110.112 119.792 109.477 119.701C108.841 119.611 92.3008 131.253 72.7216 145.572ZM389.023 143.944C389.023 146.402 385.011 152.95 382.589 154.446C379.547 156.326 374.443 156.211 373.205 154.235C372.073 152.428 374.337 149.447 379.712 145.666C384.164 142.534 389.023 141.637 389.023 143.944ZM682.495 156.995C683.496 160.025 683.124 161.311 680.757 163.004C676.181 166.277 659.046 176.982 658.791 176.728C658.631 176.568 659.799 174.241 661.387 171.558C664.72 165.923 671.446 158.239 675.813 155.075C679.4 152.477 681.173 152.987 682.495 156.995Z" fill="white"/>
</svg>
